<svg width="40" height="40" viewBox="0 0 40 40" fill="none" xmlns="http://www.w3.org/2000/svg">
<path d="M31.6667 18.3333H21.6667V8.33329C21.6667 7.89127 21.4911 7.46734 21.1785 7.15478C20.866 6.84222 20.442 6.66663 20 6.66663C19.558 6.66663 19.1341 6.84222 18.8215 7.15478C18.5089 7.46734 18.3334 7.89127 18.3334 8.33329V18.3333H8.33335C7.89133 18.3333 7.4674 18.5089 7.15484 18.8214C6.84228 19.134 6.66669 19.5579 6.66669 20C6.66669 20.442 6.84228 20.8659 7.15484 21.1785C7.4674 21.491 7.89133 21.6666 8.33335 21.6666H18.3334V31.6666C18.3334 32.1087 18.5089 32.5326 18.8215 32.8451C19.1341 33.1577 19.558 33.3333 20 33.3333C20.442 33.3333 20.866 33.1577 21.1785 32.8451C21.4911 32.5326 21.6667 32.1087 21.6667 31.6666V21.6666H31.6667C32.1087 21.6666 32.5326 21.491 32.8452 21.1785C33.1578 20.8659 33.3334 20.442 33.3334 20C33.3334 19.5579 33.1578 19.134 32.8452 18.8214C32.5326 18.5089 32.1087 18.3333 31.6667 18.3333Z" fill="#195557"/>
</svg>
