<svg width="41" height="41" viewBox="0 0 41 41" fill="none" xmlns="http://www.w3.org/2000/svg">
<path d="M7.7376 20.2643C7.7376 20.2643 5.36416 23.206 5.64888 25.0095L4.03564 26.4331V27.2873C4.03564 27.2873 7.92666 28.9005 11.628 27.7616V29.1852L11.7231 30.6088L13.6211 31.3679C13.6211 31.3679 15.8038 30.9886 16.3732 27.9512C16.3732 27.9512 18.651 28.8054 19.6003 31.2734L22.2579 31.0832C22.2579 31.0832 22.6371 29.6596 22.1628 28.7109L33.8364 28.5207L34.9753 29.565V30.7039L35.5447 31.3679H36.7787L37.7274 30.3241L36.6836 26.6227L37.5378 23.9651C37.5378 23.9651 27.6676 29.9443 14.0009 22.1623L12.9571 19.979C12.9571 19.979 10.7739 20.3588 10.869 20.9283C10.869 20.9283 10.3941 19.4101 7.73703 20.2643H7.7376Z" fill="#9B9B9A"/>
<path d="M10.5849 17.3692L8.5918 20.5011C8.5918 20.5011 10.9168 20.5962 10.8696 21.4025C10.8217 22.2094 12.2932 22.7789 10.6321 25.1518L11.8661 25.7212L12.6724 25.1039L13.5744 23.1109L14.0015 22.1622C14.0015 22.1622 24.8677 30.3713 37.5378 23.965L38.4392 22.2567L35.592 19.4095L35.26 18.1761L34.8802 16.5623L32.6503 16.1352L30.6572 13.8574L26.1489 13.0983L23.7288 12.1969L21.5461 13.7629L19.3628 13.2407L16.9905 14.9018L15.8989 14.949L13.9531 14.7594L12.6719 17.5115L11.3434 17.5588L10.5843 17.3692H10.5849Z" fill="#195557"/>
<path d="M13.9303 15.1688C13.4429 16.4501 12.8865 17.0446 12.4418 17.4956C12.2896 17.6523 12.085 17.7474 11.8672 17.7628C11.6493 17.7781 11.4334 17.7126 11.2608 17.5787L10.5865 17.0514L8.63676 19.9294C8.50995 20.1165 8.33922 20.2698 8.13949 20.3757C7.93976 20.4816 7.71712 20.537 7.49104 20.537C7.49104 20.537 5.96948 22.3996 5.4399 24.4126C5.29184 24.9769 4.93765 25.4661 4.46957 25.8146L4.25261 25.9769C4.25261 25.9769 2.91441 27.0941 4.5117 27.5799C4.5117 27.5799 9.99147 29.3104 13.0283 26.8903" stroke="black" stroke-width="2" stroke-miterlimit="10" stroke-linecap="round" stroke-linejoin="round"/>
<path d="M23.5631 12.7014C23.5631 12.7014 22.5244 13.4001 21.7409 13.5493C21.4049 13.6137 21.0792 13.6803 20.7643 13.7486L18.9603 13.366C18.0657 14.3881 16.8226 14.875 15.9473 15.2588" stroke="black" stroke-width="2" stroke-miterlimit="10" stroke-linecap="round" stroke-linejoin="round"/>
<path d="M34.1456 16.4028C33.0147 16.4028 32.6935 16.3157 32.0557 15.8009C31.5612 15.4031 31.1422 14.9195 30.8189 14.3733L30.5866 13.9804C29.0826 13.9804 27.4734 13.7982 26.0037 13.5568" stroke="black" stroke-width="2" stroke-miterlimit="10" stroke-linecap="round" stroke-linejoin="round"/>
<path d="M37.728 21.9236C35.965 21.2665 35.7156 19.4095 35.1324 18.6578" stroke="black" stroke-width="2" stroke-miterlimit="10" stroke-linecap="round" stroke-linejoin="round"/>
<path d="M11.8547 29.4659L11.7254 29.7352C11.6419 29.9088 11.6038 30.1008 11.6147 30.2931C11.6255 30.4854 11.685 30.6719 11.7875 30.835C11.89 30.9981 12.0322 31.1325 12.2008 31.2257C12.3694 31.3189 12.5589 31.3678 12.7516 31.3678H13.6781C13.8834 31.3679 14.0849 31.3125 14.2614 31.2075C14.4378 31.1024 14.5825 30.9516 14.6803 30.771L16.3003 27.774C16.3003 27.774 18.294 28.5997 19.0075 30.6418C19.1629 31.0865 19.6048 31.3678 20.0758 31.3678H21.2277C21.3874 31.3682 21.5453 31.335 21.6913 31.2703C21.8372 31.2056 21.9679 31.1109 22.0748 30.9923C22.1817 30.8738 22.2625 30.734 22.3118 30.5822C22.3611 30.4303 22.3778 30.2698 22.3609 30.111C22.3023 29.5826 22.1952 29.0348 22.0005 28.7939C22.0005 28.7939 30.631 29.0428 33.3934 28.4454C33.9765 28.319 34.5573 28.6721 34.686 29.2546C34.7486 29.537 34.7856 29.8537 34.7669 30.1868C34.7304 30.8359 35.2526 31.3678 35.9023 31.3678H36.1244C36.7645 31.3678 37.2633 30.9122 37.3049 30.3189C37.3749 29.3258 37.2969 27.8179 36.4234 26.6568C36.4234 26.6568 37.0685 26.0919 37.0566 24.3295" stroke="black" stroke-width="2" stroke-miterlimit="10" stroke-linecap="round" stroke-linejoin="round"/>
<path d="M10.939 21.1936C10.939 21.1936 12.1485 19.2991 13.2282 20.9989C13.9565 22.1463 13.0528 23.87 12.3883 24.8699C12.2351 25.0997 12.0071 25.2694 11.7429 25.3499C11.4788 25.4305 11.1949 25.417 10.9396 25.3118V25.3118" stroke="black" stroke-width="2" stroke-miterlimit="10" stroke-linecap="round" stroke-linejoin="round"/>
<path d="M15.6147 19.701L18.462 17.3521" stroke="black" stroke-width="2" stroke-miterlimit="10" stroke-linecap="round" stroke-linejoin="round"/>
<path d="M17.9637 22.8461L21.3804 21.6742" stroke="black" stroke-width="2" stroke-miterlimit="10" stroke-linecap="round" stroke-linejoin="round"/>
<path d="M21.0245 18.6578L24.4679 17.0674" stroke="black" stroke-width="2" stroke-miterlimit="10" stroke-linecap="round" stroke-linejoin="round"/>
<path d="M22.7459 24.7548L26.6477 24.3295" stroke="black" stroke-width="2" stroke-miterlimit="10" stroke-linecap="round" stroke-linejoin="round"/>
<path d="M27.7866 20.8605L31.7016 21.562" stroke="black" stroke-width="2" stroke-miterlimit="10" stroke-linecap="round" stroke-linejoin="round"/>
<path d="M26.732 18.5012L29.8377 17.0759" stroke="black" stroke-width="2" stroke-miterlimit="10" stroke-linecap="round" stroke-linejoin="round"/>
<path d="M30.2033 24.924L33.7686 25.8789" stroke="black" stroke-width="2" stroke-miterlimit="10" stroke-linecap="round" stroke-linejoin="round"/>
</svg>
