<svg width="46" height="46" viewBox="0 0 46 46" fill="none" xmlns="http://www.w3.org/2000/svg">
<path d="M33.3773 5.43518L31.3088 7.50374L31.8478 8.04281L28.5689 11.3217L30.59 13.3889L33.8718 10.0625L35.9375 12.1296L32.6126 15.4071L34.6797 17.4297L37.9586 14.1507L38.4977 14.6898L40.5663 12.6212L33.3773 5.43518ZM25.4711 10.4664L23.4025 12.535L24.347 13.478L10.0625 27.807L9.56801 28.3001L9.65858 28.9757L10.1516 33.557L10.1976 34.0501L10.3313 34.1406L5.66089 38.8125H9.74914L12.6701 35.8929L17.0258 36.3414L17.7014 36.432L18.1945 35.9375L32.5249 21.6516L33.4679 22.5961L35.535 20.5289L25.4711 10.4664ZM26.4141 15.5437L30.4578 19.5859L16.6664 33.4219L13.2523 33.0179L12.9821 32.7477L12.5781 29.3336L26.4141 15.5437Z" fill="#195557"/>
</svg>
